<svg xmlns="http://www.w3.org/2000/svg" width="31" height="25" viewBox="0 0 31 25"><g><g><path fill="#ee7f89" d="M7.389.027a8.635 8.635 0 0 0-2.33.635c-.907.409-1.613.9-2.35 1.64C1.182 3.832.37 5.802.37 7.981c0 1.278.253 2.396.805 3.567 1.365 2.898 4.989 6.656 10.118 10.503 1.794 1.344 3.904 2.769 4.107 2.769.209 0 2.796-1.77 4.566-3.124 4.918-3.76 8.253-7.266 9.624-10.115a7.794 7.794 0 0 0 .78-2.694c.06-.513.042-1.654-.03-2.107a8.15 8.15 0 0 0-.745-2.36C28.436 2.065 26.263.461 23.706.068a9.482 9.482 0 0 0-1.773-.048c-1.752.164-3.368.856-4.947 2.114-.197.157-.638.563-.981.903l-.62.617-.188-.197c-.101-.11-.22-.242-.262-.29-.122-.148-.876-.828-1.222-1.1C12.318.964 10.855.305 9.275.067 8.903.01 7.765-.014 7.39.027z"/></g></g></svg>