<svg xmlns="http://www.w3.org/2000/svg" width="328" height="130" viewBox="0 0 328 130"><g><g><path fill="#dbdbe0" d="M262.994 130c.004-.166.004-.336.004-.501a32.358 32.358 0 0 0-9.518-22.98 32.444 32.444 0 0 0-10.33-6.966 32.292 32.292 0 0 0-12.652-2.555H32.5C14.553 96.998-.001 82.45-.001 64.502-.001 46.55 14.553 32 32.5 32h198.512a32.446 32.446 0 0 0 22.305-9.356 32.48 32.48 0 0 0 6.99-10.171A32.293 32.293 0 0 0 262.994 0c8.787 0 17.299 1.716 25.303 5.106a65.099 65.099 0 0 1 11.043 5.991 65.471 65.471 0 0 1 9.62 7.938 65.572 65.572 0 0 1 7.938 9.621 65.094 65.094 0 0 1 5.997 11.043C326.28 47.712 328 56.224 328 65.002c0 8.773-1.719 17.286-5.105 25.298a64.977 64.977 0 0 1-5.997 11.043 65.172 65.172 0 0 1-7.937 9.617 65.178 65.178 0 0 1-20.664 13.933c-8.016 3.386-16.53 5.106-25.299 5.106z"/></g></g></svg>