<svg xmlns="http://www.w3.org/2000/svg" width="21" height="18" viewBox="0 0 21 18"><defs><clipPath id="d0cna"><path fill="#fff" d="M4.852.84a5.975 5.975 0 0 0-1.613.44 5.184 5.184 0 0 0-1.626 1.134A5.461 5.461 0 0 0-.006 6.346c0 .884.175 1.658.557 2.469.945 2.005 3.453 4.606 7.003 7.269 1.242.93 2.703 1.916 2.843 1.916.144 0 1.935-1.225 3.16-2.161 3.404-2.604 5.712-5.03 6.66-7.002.308-.637.459-1.159.541-1.864.041-.355.03-1.145-.02-1.459a5.643 5.643 0 0 0-.516-1.633c-.803-1.63-2.306-2.74-4.076-3.012a6.58 6.58 0 0 0-1.228-.033c-1.213.113-2.33.592-3.424 1.462-.136.11-.441.39-.678.625l-.43.427-.13-.136-.181-.2c-.085-.103-.606-.573-.846-.761-.965-.765-1.978-1.221-3.071-1.386A8.341 8.341 0 0 0 4.852.84z"/></clipPath></defs><g><g><path fill="none" stroke="#fff" stroke-miterlimit="20" stroke-width="4" d="M4.852.84a5.975 5.975 0 0 0-1.613.44 5.184 5.184 0 0 0-1.626 1.134A5.461 5.461 0 0 0-.006 6.346c0 .884.175 1.658.557 2.469.945 2.005 3.453 4.606 7.003 7.269 1.242.93 2.703 1.916 2.843 1.916.144 0 1.935-1.225 3.16-2.161 3.404-2.604 5.712-5.03 6.66-7.002.308-.637.459-1.159.541-1.864.041-.355.03-1.145-.02-1.459a5.643 5.643 0 0 0-.516-1.633c-.803-1.63-2.306-2.74-4.076-3.012a6.58 6.58 0 0 0-1.228-.033c-1.213.113-2.33.592-3.424 1.462-.136.11-.441.39-.678.625l-.43.427v0l-.13-.136-.181-.2c-.085-.103-.606-.573-.846-.761-.965-.765-1.978-1.221-3.071-1.386A8.341 8.341 0 0 0 4.852.84z" clip-path="url(&quot;#d0cna&quot;)"/></g></g></svg>