<svg xmlns="http://www.w3.org/2000/svg" width="21" height="17" viewBox="0 0 21 17"><g><g><path fill="#fff" d="M4.97.02a5.854 5.854 0 0 0-1.58.43 5.081 5.081 0 0 0-1.592 1.11A5.347 5.347 0 0 0 .213 5.41c0 .866.172 1.623.545 2.417.925 1.963 3.381 4.51 6.857 7.117 1.216.911 2.646 1.877 2.783 1.877.141 0 1.894-1.2 3.094-2.117 3.332-2.549 5.592-4.924 6.521-6.855a5.28 5.28 0 0 0 .53-1.825 7.615 7.615 0 0 0-.02-1.428 5.524 5.524 0 0 0-.506-1.6C19.232 1.401 17.76.314 16.027.047c-.301-.046-.887-.06-1.202-.032-1.188.111-2.282.58-3.353 1.432-.133.107-.432.382-.664.612l-.42.418-.127-.133c-.07-.075-.15-.164-.178-.196-.083-.1-.594-.561-.828-.745C8.31.653 7.318.207 6.248.046A8.172 8.172 0 0 0 4.969.019z"/></g></g></svg>