<svg xmlns="http://www.w3.org/2000/svg" width="20" height="22" viewBox="0 0 20 22"><g><g><path fill="#fff" d="M15.696 20.205a2.3 2.3 0 0 1-2.296-2.296c0-.028 0-.055.002-.083a2.288 2.288 0 0 1 .8-1.657 2.278 2.278 0 0 1 1.494-.556 2.3 2.3 0 0 1 2.296 2.296 2.3 2.3 0 0 1-2.296 2.296zm-9.683-8.762a2.3 2.3 0 0 1-2.256 1.874A2.3 2.3 0 0 1 1.46 11.02a2.3 2.3 0 0 1 2.296-2.296c.489 0 .943.154 1.315.415a2.288 2.288 0 0 1 .98 1.88c0 .146-.013.288-.039.423zm9.683-10.295a2.3 2.3 0 0 1 2.296 2.296 2.3 2.3 0 0 1-2.296 2.296A2.302 2.302 0 0 1 13.4 3.444a2.3 2.3 0 0 1 2.296-2.296zm0 13.317c-.999 0-1.899.425-2.528 1.107L7.047 12.04a3.39 3.39 0 0 0 .153-1.02c0-.334-.048-.658-.14-.966l6.354-4.032A3.445 3.445 0 1 0 15.696 0a3.445 3.445 0 0 0-3.284 4.482l-6.32 4.01a3.417 3.417 0 0 0-2.335-.915 3.445 3.445 0 0 0 0 6.888c.881 0 1.687-.333 2.296-.88l6.27 3.619a3.445 3.445 0 1 0 6.817.705 3.445 3.445 0 0 0-3.444-3.444z"/></g></g></svg>