<svg xmlns="http://www.w3.org/2000/svg" width="39" height="39" viewBox="0 0 39 39"><g><g><path fill="#fff" d="M21.71 9.766c2.911.623 5.393 2.56 6.737 5.256.71 1.411.983 2.638.983 4.332 0 .671-.049 1.48-.117 1.8-.633 3.096-2.55 5.597-5.315 6.98-1.411.71-2.638.983-4.331.983-.672 0-1.48-.049-1.801-.117-2.015-.418-3.7-1.314-5.12-2.725-1.412-1.422-2.307-3.106-2.726-5.12-.156-.75-.156-2.853 0-3.602.419-2.015 1.314-3.7 2.726-5.12 1.655-1.645 3.611-2.57 6.045-2.852.564-.068 2.238.039 2.92.185zM17.088.42c-1.966.282-4.137.915-4.137 1.197 0 .76.234 2.035.497 2.726.175.438.292.817.272.837a78.79 78.79 0 0 1-2.19 1.13c-.01 0-.204-.312-.428-.692-.448-.74-1.976-2.18-2.18-2.064-.867.526-2.863 2.288-3.651 3.232l-.38.448.623.866c.41.565.847 1.042 1.295 1.382l.681.536-.69 1.06-.702 1.052-.69-.38c-.624-.34-2.162-.769-2.775-.769-.185 0-.574.837-1.09 2.337-.34.983-.77 2.852-.682 2.93.04.029.487.243.993.467.643.282 1.178.447 1.743.525l.827.117-.03 1.217c-.009.672-.038 1.236-.067 1.256-.02.02-.4.058-.837.077-.886.05-2.901.633-2.901.838 0 .068.068.574.146 1.139.253 1.937.905 4.185 1.197 4.185.76 0 2.035-.234 2.726-.496.438-.176.817-.292.837-.273.039.049 1.129 2.161 1.129 2.19 0 .01-.311.205-.691.429-.74.447-2.18 1.975-2.064 2.18.526.866 2.288 2.862 3.232 3.65l.448.38.866-.623c.565-.409 1.042-.847 1.382-1.295l.536-.681 1.06.7 1.062.692-.38.7c-.35.624-.779 2.152-.779 2.755 0 .195.867.604 2.288 1.081 1.041.36 2.9.788 2.978.7.03-.038.244-.486.468-.992.282-.643.447-1.178.525-1.752l.117-.828 1.217.04c.672.01 1.236.048 1.256.067.019.02.058.4.077.838.03.574.146 1.11.39 1.85.185.583.37 1.05.409 1.05.029 0 .438-.048.885-.097 1.947-.243 4.478-.944 4.478-1.246 0-.76-.234-2.034-.496-2.725-.176-.438-.292-.818-.273-.838a78.796 78.796 0 0 1 2.19-1.129c.01 0 .205.312.429.691.447.74 1.976 2.18 2.18 2.064.866-.526 2.862-2.287 3.65-3.232l.38-.448-.623-.866c-.409-.564-.847-1.041-1.295-1.382l-.681-.535.7-1.061.692-1.061.7.38c.633.35 2.152.778 2.765.778.185 0 .574-.837 1.09-2.336.341-.983.77-2.852.682-2.93-.04-.03-.487-.244-.993-.467-.643-.283-1.178-.448-1.752-.526l-.828-.117.04-1.217c.01-.671.048-1.236.067-1.255.02-.02.4-.059.838-.078.885-.049 2.9-.633 2.9-.837 0-.068-.068-.575-.146-1.14-.253-1.936-.905-4.185-1.197-4.185-.76 0-2.034.234-2.725.497-.439.175-.818.292-.838.272a78.752 78.752 0 0 1-1.129-2.19c0-.01.312-.205.691-.428.74-.448 2.18-1.976 2.064-2.18-.526-.867-2.288-2.863-3.232-3.651l-.448-.38-.866.623c-.564.41-1.041.847-1.382 1.295l-.535.681-1.061-.69-1.052-.702.38-.69c.34-.624.769-2.162.769-2.765 0-.195-.866-.604-2.288-1.08-1.041-.36-2.9-.79-2.978-.702-.03.04-.244.487-.467.993-.283.643-.448 1.178-.526 1.752l-.117.828-1.217-.04c-.671-.009-1.236-.048-1.255-.067-.02-.02-.059-.4-.078-.838-.03-.574-.146-1.11-.39-1.859-.38-1.187-.224-1.1-1.635-.895z"/></g></g></svg>